<svg id="Layer_1" data-name="Layer 1" xmlns="http://www.w3.org/2000/svg" viewBox="0 0 1000 1000"><defs><style>.cls-1,.cls-5{fill:#caa165;}.cls-2,.cls-3,.cls-4{fill:none;}.cls-2,.cls-4,.cls-5{stroke:#caa165;}.cls-2{stroke-linecap:round;stroke-linejoin:round;stroke-width:6px;}.cls-4,.cls-5{stroke-miterlimit:10;stroke-width:6.98px;}</style></defs><title>occult-icons</title><path class="cls-1" d="M209.52,379.67l-47.69-98.54a4.5,4.5,0,0,0-8.1,3.92l48.58,100.37"/><path class="cls-1" d="M256.28,345.1l-34.51-89.57a4.5,4.5,0,0,0-8.4,3.24l35.31,91.64"/><path class="cls-1" d="M306.09,313.36l-23-78.22a4.5,4.5,0,0,0-8.64,2.53l23.6,80.43"/><path class="cls-1" d="M359.14,285.49l-13.53-65.56a4.5,4.5,0,1,0-8.81,1.82l14,67.71"/><path class="cls-1" d="M415.42,263.38l-6.56-53.46a4.5,4.5,0,1,0-8.93,1.09l6.77,55.23"/><path class="cls-1" d="M474.4,250.08l-1.83-45a4.5,4.5,0,1,0-9,.37l1.86,45.81"/><path class="cls-1" d="M534.57,250.82l1.84-45.36a4.5,4.5,0,0,0-9-.37l-1.83,45"/><path class="cls-1" d="M593.44,265.1,600.07,211a4.5,4.5,0,0,0-8.93-1.1l-6.43,52.45"/><path class="cls-1" d="M649.58,287.77l13.63-66a4.5,4.5,0,1,0-8.81-1.82L641.2,283.85"/><path class="cls-1" d="M702.4,316.41l23.11-78.74a4.5,4.5,0,0,0-8.64-2.53l-22.45,76.52"/><path class="cls-1" d="M751.81,349.15l34.82-90.38a4.5,4.5,0,0,0-8.4-3.24l-34,88.23"/><path class="cls-1" d="M798,384.74l48.25-99.69a4.5,4.5,0,0,0-8.1-3.92L790.85,378.9"/><path class="cls-1" d="M445,684c27,9,9,72.41-41.65,101.35a2.87,2.87,0,0,0,1.67,5.36c37.52-3.35,125.74-26.53,151-107.71l-53,5Z"/><path class="cls-2" d="M501.14,688.63h-2.28c-1.65,0-3.3,0-4.94-.06l-1.61,0-3.39-.13-1.79-.08q-2.11-.11-4.2-.27l-2.48-.2-1.93-.17c-3.57-.33-7.2-.76-10.77-1.27-43.59-5.64-90.91-22-140.66-48.65-15-8-30.33-17.08-45.64-26.92-11.56-7.43-23.29-15.44-34.88-23.81-40.31-29.11-80.39-63.5-119.1-102.22l-14.14-14.14,14.14-14.14A945.2,945.2,0,0,1,245.81,356.43c11.28-8,22.69-15.74,33.91-22.93,14.63-9.37,29.35-18.11,43.77-26,44.24-24.17,86-40.58,124.27-48.77a218.09,218.09,0,0,1,24.66-4.44l1-.11c1.68-.2,3.33-.37,5-.53l1.65-.15c1.49-.13,3-.24,4.45-.33l1.91-.12c1.5-.08,3-.15,4.46-.2l.54,0,1.24,0c2.23-.06,4.26-.09,6.21-.09h2.28a220.45,220.45,0,0,1,30.46,2.13h6.18l1.18,1.05c41.73,6.39,86.76,22.42,133.95,47.69,15,8,30.33,17.08,45.64,26.92,11.56,7.43,23.29,15.44,34.88,23.81,40.31,29.11,80.39,63.5,119.1,102.22l14.14,14.14-14.14,14.14A945.2,945.2,0,0,1,754.19,584.9c-11.28,8-22.69,15.74-33.91,22.93-14.62,9.37-29.35,18.11-43.77,26-44.23,24.17-86,40.57-124.26,48.77A218.92,218.92,0,0,1,501.14,688.63Z"/><path class="cls-3" d="M514.75,471.67a241,241,0,0,1-29.5-2,199.57,199.57,0,0,0,28.41,2Z"/><path class="cls-4" d="M477.25,473.44a198.43,198.43,0,0,0,46.68-5.55,236.53,236.53,0,0,1-47.86,5.54Z"/><path class="cls-4" d="M742.6,568.6a920.79,920.79,0,0,0,115.79-97.94c-37.48-37.48-76.86-71.4-116.67-100.15a263.29,263.29,0,0,1,.88,198.09Z"/><path class="cls-4" d="M741.5,470.66A240.08,240.08,0,0,1,709.5,591q16.69-10.69,33.1-22.38a263.29,263.29,0,0,0-.88-198.09q-17-12.25-34-23.2A240,240,0,0,1,741.5,470.66Z"/><path class="cls-5" d="M707.73,347.31q-22.16-14.25-44.26-26.11a221.49,221.49,0,0,1,3.46,295.07Q688.26,604.6,709.5,591a242.16,242.16,0,0,0-1.77-243.68Z"/><path class="cls-4" d="M300.9,470.66c0,109.33,88.63,198,198,198,50.67,0,109.36-20.29,168.06-52.37a221.49,221.49,0,0,0-3.46-295.07c-57.36-30.72-113.67-48.5-164.6-48.5C389.53,272.7,300.9,361.33,300.9,470.66Z"/><path class="cls-3" d="M498.86,272.7a198.43,198.43,0,0,0-46.66,5.55,236.5,236.5,0,0,1,47.92-5.53Z"/><path class="cls-4" d="M257.4,372.72a920.79,920.79,0,0,0-115.79,97.94c37.48,37.48,76.86,71.4,116.67,100.15a263.29,263.29,0,0,1-.88-198.09Z"/><path class="cls-4" d="M452.2,278.24c-86.81,21-151.3,99.16-151.3,192.42,0,99.69,73.69,182.15,169.56,195.93a241,241,0,0,0,29.5,2,236.53,236.53,0,0,0,47.86-5.54c86.8-21,151.29-99.16,151.29-192.42,0-99.47-73.36-181.79-168.93-195.84a241.54,241.54,0,0,0-30.05-2.11A236.5,236.5,0,0,0,452.2,278.24Z"/><path class="cls-4" d="M258.5,470.66a240.08,240.08,0,0,1,32-120.32Q273.82,361,257.4,372.72a263.29,263.29,0,0,0,.88,198.09q17,12.25,34,23.2A240,240,0,0,1,258.5,470.66Z"/><path class="cls-5" d="M278.5,470.66a219.85,219.85,0,0,1,54.58-145.6q-21.34,11.66-42.57,25.28A242.16,242.16,0,0,0,292.27,594q22.16,14.25,44.26,26.11A219.9,219.9,0,0,1,278.5,470.66Z"/><path class="cls-4" d="M500.12,272.71a241.54,241.54,0,0,1,30.05,2.11,199.55,199.55,0,0,0-29-2.12Z"/><path class="cls-4" d="M336.54,620.13c46.06,24.67,91.45,41,133.92,46.46C374.58,652.81,300.9,570.35,300.9,470.66c0-93.26,64.49-171.44,151.3-192.42-37.94,8.09-78.52,24.64-119.12,46.82a221.49,221.49,0,0,0,3.46,295.07Z"/><path class="cls-1" d="M500,339.16a131.5,131.5,0,1,0,131.5,131.5A131.5,131.5,0,0,0,500,339.16ZM463,491.47q-10.95-49.87-60.81-60.81,49.87-10.95,60.81-60.81,10.95,49.87,60.81,60.81Q473.95,441.61,463,491.47Z"/><circle class="cls-1" cx="613.66" cy="716.16" r="23.5"/><circle class="cls-1" cx="690.66" cy="716.16" r="23.5"/><circle class="cls-1" cx="767.66" cy="716.16" r="23.5"/></svg>