<svg id="Layer_1" data-name="Layer 1" xmlns="http://www.w3.org/2000/svg" viewBox="0 0 1280 1024"><defs><style>.cls-1{font-size:57px;font-family:Montserrat-Bold, Montserrat;font-weight:700;}.cls-1,.cls-3,.cls-5,.cls-7{fill:#caa165;}.cls-11,.cls-12,.cls-13,.cls-14,.cls-15,.cls-2{fill:none;}.cls-10,.cls-11,.cls-12,.cls-13,.cls-14,.cls-15,.cls-2,.cls-3,.cls-4,.cls-5,.cls-6,.cls-9{stroke:#caa165;}.cls-10,.cls-13,.cls-2,.cls-3,.cls-4,.cls-5,.cls-6,.cls-9{stroke-linecap:round;}.cls-10,.cls-2,.cls-3,.cls-4,.cls-5,.cls-6,.cls-9{stroke-linejoin:round;}.cls-2,.cls-3,.cls-4{stroke-width:3.03px;}.cls-4,.cls-6{fill:#fff;}.cls-5,.cls-6{stroke-width:2.92px;}.cls-10,.cls-8,.cls-9{fill:#333;}.cls-9{stroke-width:3.04px;}.cls-10{stroke-width:3.74px;}.cls-11,.cls-12,.cls-13,.cls-14,.cls-15{stroke-miterlimit:10;}.cls-11{stroke-width:4.83px;}.cls-12,.cls-13{stroke-width:5.99px;}.cls-14{stroke-width:4.39px;}.cls-15{stroke-width:3.19px;}</style></defs><title>ouijiboard-nonum</title><text class="cls-1" transform="translate(437.8 923.08)">G O O D B Y E </text><path class="cls-2" d="M609.57,315s-10.68,1.2-6.62,10.67c0,0,4.28-2.48,5.19.23s-3.61,3.16-1.35,9c0,0,4.51-8.12,6.77-1.8s1.8,10.82-.9,11.73c0,0,.45,4.51,5.41.9s8.34-3.83,7.44,1.58,4.28,4.74,4.28,4.74-2.26-2.26,0-4.06,6.09-2.48,6.54,1.58-2.71,7.22-2.71,7.22,9,2.26,9-3.16c0,0,.9-9,6.31-5s14,2.26,14,2.26-10.32-6.58-5.41-8.12c7.22-2.26,10.37-2.71,11.28,4.06,0,0,6.33-8.77,0-10.82-5.22-1.69,1.11-9.66,3.61-9.47,4.5.34,9.47-2.26,9.47-2.26s-9.47-2.26-7.67-5-3.78-4.35-3.78-4.35H609.57"/><path class="cls-3" d="M572.37,219.29s5.78,28.23-2.08,36.15-16.2,8.38-18.22,21.57-2.36,10-2.36,10l-1.35-24.55L562,238.67Z"/><path class="cls-4" d="M575.43,201.29c-1.07,1.59-1.52,9.18-10.37,16.52S543.34,250.26,548.86,276a129.32,129.32,0,0,1,14-29.22c9.37-14.23,4.25-15.66,7.93-19S575.43,201.29,575.43,201.29Z"/><path class="cls-5" d="M635.75,154.37c-.22-1.26-3.06-93.95-39.38-85.87s-27.78,28.79-43.09,27-18.16-5.05-18.16-5.05,5.36,14.77,25.7,9.72S595.83,79,602,89.84s11.16,64.4,11.16,64.4Z"/><path class="cls-6" d="M596.37,68.5A72.83,72.83,0,0,0,585,71.94a33.61,33.61,0,0,1,11.41,10c.94,1.37,4.83,6.66,5.63,8.13,1.72,3.17,2.58,7.07,3.4,10.66.78,3.39,1.43,6.83,2,10.27,1.31,7.49,2.36,15,3.31,22.6q1.07,8.55,2,17.13c0,.18.3,3.54.35,3.54l22.64.13C635.53,153.1,632.69,60.42,596.37,68.5Z"/><path class="cls-2" d="M610.45,155.91s-31.77-30.16-64.25-26.08-83.31,44.83-55.07,111.67,53.66,60.32,53.66,60.32-36-88-28.95-107.59c5.59-15.49,26.12-24.45,64.25-7.34Z"/><path class="cls-7" d="M516.11,194.33c.85-2.79,7.94-10.12,9.62-12.33-9.59,2.86-23.77,14.82-28.55,25-13.13,27.87.36,54.88,17.2,76,7,8.76,17.12,18.93,28.16,19a9,9,0,0,0,2.25-.17c-.94.24-9-23.44-9.61-25-6-16.28-11.65-32.82-16-49.8C516.65,216.91,513,204.51,516.11,194.33Z"/><path class="cls-4" d="M491.84,281.44c1.41.82,44.48,34,48.72,9.65,0,0,18.36,29.47-3.53,31.1S491.84,281.44,491.84,281.44Z"/><path class="cls-2" d="M640,151.31S609.15,139.13,589.23,173s-22.66,55-10.55,76.22,20.31,24.35,25,41.49S610.71,343,640,343"/><path class="cls-7" d="M577.71,213.71c0-4.4,14,6.95,16.2,10.76a93.54,93.54,0,0,1,11.75,45s-6.31-26.48-11.18-32.1c0,0-12.76.17-15.62-5.46C574.66,223.68,577.71,225.29,577.71,213.71Z"/><path class="cls-8" d="M584,218.73a1.32,1.32,0,0,0-1.73,1,8.69,8.69,0,0,0,.86,6.92c2.58,4.63,4,6,6.59,5.3a4.27,4.27,0,0,0,3.15-2.32S590.34,221.32,584,218.73Z"/><path class="cls-2" d="M602.7,225.27s13.67,24.81,13.67,61.34-4.58,38.71,3.62,48.17"/><path class="cls-2" d="M615.39,315s7,18.18,24.62,18.18"/><path class="cls-9" d="M611.5,156.5c-2.24-.95-11.11-7.62-9.25-13.31,0,0-5.59,10,0,16.11s-10.43-5.69-13.79-.95c0,0,4.84,0,3.35,4.27s-11.18,8.06-9.69.95c0,0-6.71,2.84,2.61,11.38s-4.1.95-8.2,1.42-3.73,12.8-3.73,12.8,1.12-5.21,4.84-4.27,4.14,9.48,4.14,9.48"/><path class="cls-7" d="M640.16,218.64h-12.4s12.4,23.78,12.4,83.19Z"/><path class="cls-3" d="M707.63,219.29s-5.78,28.23,2.08,36.15,16.2,8.38,18.22,21.57,2.36,10,2.36,10l1.35-24.55L718,238.67Z"/><path class="cls-4" d="M704.57,201.29c1.07,1.59,1.52,9.18,10.37,16.52s21.73,32.46,16.21,58.21a129.32,129.32,0,0,0-14-29.22c-9.37-14.23-4.25-15.66-7.93-19S704.57,201.29,704.57,201.29Z"/><path class="cls-5" d="M644.25,154.37c.22-1.26,3.06-93.95,39.38-85.87s27.78,28.79,43.09,27,18.16-5.05,18.16-5.05-5.36,14.77-25.7,9.72S684.17,79,678,89.84s-11.16,64.4-11.16,64.4Z"/><path class="cls-6" d="M683.63,68.5A72.83,72.83,0,0,1,695,71.94a33.61,33.61,0,0,0-11.41,10c-.94,1.37-4.83,6.66-5.63,8.13-1.72,3.17-2.58,7.07-3.4,10.66-.78,3.39-1.43,6.83-2,10.27-1.31,7.49-2.36,15-3.31,22.6q-1.07,8.55-2,17.13c0,.18-.3,3.54-.35,3.54l-22.64.13C644.47,153.1,647.31,60.42,683.63,68.5Z"/><path class="cls-2" d="M669.55,155.91s31.77-30.16,64.25-26.08,83.31,44.83,55.07,111.67-53.66,60.32-53.66,60.32,36-88,28.95-107.59c-5.59-15.49-26.12-24.45-64.25-7.34Z"/><path class="cls-7" d="M763.89,194.33c-.85-2.79-7.94-10.12-9.62-12.33,9.59,2.86,23.77,14.82,28.55,25,13.13,27.87-.36,54.88-17.2,76-7,8.76-17.12,18.93-28.16,19a9,9,0,0,1-2.25-.17c.94.24,9-23.44,9.61-25,6-16.28,11.65-32.82,16-49.8C763.35,216.91,767,204.51,763.89,194.33Z"/><path class="cls-4" d="M788.16,281.44c-1.41.82-44.48,34-48.72,9.65,0,0-18.36,29.47,3.53,31.1S788.16,281.44,788.16,281.44Z"/><path class="cls-2" d="M640,151.31s30.86-12.18,50.78,21.65,22.66,55,10.55,76.22-20.31,24.35-25,41.49S669.29,343,640,343"/><path class="cls-7" d="M702.29,213.71c0-4.4-14,6.95-16.2,10.76a93.54,93.54,0,0,0-11.75,45s6.31-26.48,11.18-32.1c0,0,12.76.17,15.62-5.46C705.34,223.68,702.29,225.29,702.29,213.71Z"/><path class="cls-8" d="M696,218.73a1.32,1.32,0,0,1,1.73,1,8.69,8.69,0,0,1-.86,6.92c-2.58,4.63-4,6-6.59,5.3a4.27,4.27,0,0,1-3.15-2.32S689.66,221.32,696,218.73Z"/><path class="cls-2" d="M677.3,225.27s-13.67,24.81-13.67,61.34,4.58,38.71-3.62,48.17"/><path class="cls-2" d="M664.61,315s-7,18.18-24.62,18.18"/><path class="cls-9" d="M666.5,156.5c2.24-.95,13.11-7.62,11.25-13.31,0,0,5.59,10,0,16.11s10.43-5.69,13.79-.95c0,0-4.84,0-3.35,4.27s11.18,8.06,9.69.95c0,0,6.71,2.84-2.61,11.38s4.1.95,8.2,1.42,3.73,12.8,3.73,12.8-1.12-5.21-4.84-4.27-4.14,9.48-4.14,9.48"/><path class="cls-10" d="M612.27,157.89s-2-7.53-4.69-7.53c0,0,7.42-5.48,10.55,0s6.25-11.64,10.94-10.27c0,0-4.35,6-.78,10.27S635.48,139.26,639,142c0,0,0,10,1,13.83"/><path class="cls-10" d="M667.73,157.89s2-7.53,4.69-7.53c0,0-7.42-5.48-10.55,0s-6.25-11.64-10.94-10.27c0,0,4.35,6,.78,10.27S645.52,133.26,642,136c0,0,5,14-2,19.83"/><path class="cls-7" d="M639.84,218.64h12.4s-12.4,23.78-12.4,83.19Z"/><g id="layer1"><g id="path3019"><path class="cls-7" d="M639.89,162.26l-8.77,27.39,1.85,1.49,6.69-21.08a.41.41,0,0,1,.77,0l3.23,9.7,2.7-.08-5.7-17.42A.41.41,0,0,0,639.89,162.26Zm2.58,2.52.77,2.54a21.62,21.62,0,0,1,16.67,12l2.75.12A24,24,0,0,0,642.47,164.78Zm-4.29,0a24.06,24.06,0,0,0-20.23,15.43h2.65a21.62,21.62,0,0,1,16.82-12.87Zm28.17,15.37-29.1.48-.67,2.24,22.73-.26a.41.41,0,0,1,.24.73l-9,6.67.62,2.37,15.47-11.5A.41.41,0,0,0,666.36,180.17Zm-33.35.56-18.63.31a.41.41,0,0,0-.23.74l23.61,16.8,2.09-1.62L621.71,183.8a.41.41,0,0,1,.23-.73l10.39-.12Zm14.59,2.73-2.67.08L652,204.92a.41.41,0,0,1-.62.46l-8.35-6.07-2.22,1.48L656,211.61a.41.41,0,0,0,.62-.46Zm16.38.25-2.22,1.49a21.61,21.61,0,0,1-6.47,19.24l.73,2.65a24.14,24.14,0,0,0,8-23.38Zm-47.2.83a24.06,24.06,0,0,0,7.8,22.26l.79-2.61a21.53,21.53,0,0,1-6.51-15.45A21.83,21.83,0,0,1,619,186Zm30.35,8-18,13.31a.41.41,0,0,1-.63-.45l3.21-10.14-1.93-1.32-5.65,17.65a.41.41,0,0,0,.63.45l23.07-17.15Zm2.66,15.7a21.65,21.65,0,0,1-18.64,0l-2.3,1.57a24.06,24.06,0,0,0,23.22,0Z"/></g></g><rect class="cls-11" x="21.52" y="16.25" width="1236.96" height="991.5"/><circle class="cls-12" cx="637.91" cy="811.95" r="19.15"/><circle class="cls-7" cx="637.91" cy="811.95" r="9.58"/><path class="cls-13" d="M693.27,812c-16,16-38.65,30.58-55.54,30.58a30.58,30.58,0,0,1,0-61.16C654.62,781.37,675.34,794,693.27,812Z"/><path class="cls-13" d="M582.54,812c16-16,38.65-30.58,55.54-30.58a30.58,30.58,0,1,1,0,61.16C621.19,842.53,600.47,829.88,582.54,812Z"/><circle class="cls-12" cx="722.89" cy="812.55" r="8.98"/><circle class="cls-7" cx="702.93" cy="794.64" r="5.99" transform="translate(-148.87 162.18) rotate(-11.91)"/><circle class="cls-14" cx="682.79" cy="779.63" r="6.58"/><circle class="cls-7" cx="702.93" cy="830.51" r="5.99" transform="translate(-254.77 1346.91) rotate(-78.09)"/><circle class="cls-14" cx="682.79" cy="845.52" r="6.58"/><circle class="cls-12" cx="557.11" cy="812.55" r="8.98"/><circle class="cls-7" cx="577.07" cy="794.64" r="5.99" transform="translate(-319.56 1195.29) rotate(-78.09)"/><circle class="cls-14" cx="597.21" cy="779.63" r="6.58"/><circle class="cls-7" cx="577.07" cy="830.51" r="5.99" transform="translate(-158.98 136.98) rotate(-11.91)"/><circle class="cls-14" cx="597.21" cy="845.52" r="6.58"/><path class="cls-7" d="M763.88,812.58a32.53,32.53,0,0,1-26,31.83,32.48,32.48,0,1,0,0-63.66A32.53,32.53,0,0,1,763.88,812.58Z"/><path class="cls-7" d="M516.12,812.58a32.53,32.53,0,0,0,26,31.83,32.48,32.48,0,1,1,0-63.66A32.53,32.53,0,0,0,516.12,812.58Z"/><path class="cls-7" d="M241.31,49.09c-4.36,2.29-7.57,6.24-11.89,8.5a17.32,17.32,0,0,1-14.07,1.1,9.33,9.33,0,0,0-.74-6.31c-5.61-10.92-21.46-4.47-18.44,7.24,1,3.74,6.75,2.15,5.79-1.6-1-3.92,3.71-7.81,6.67-4,2.64,3.39-.82,7.61-3.69,9.3a32.47,32.47,0,0,1-15.77,4.45c4.74-7.36,2-19.08-6.75-23.64-16.08-8.41-26.07,11.61-31.26,23A360.83,360.83,0,0,0,137,103.06V88.59A73.08,73.08,0,0,0,153.61,45.9a2.57,2.57,0,0,0-2.14-2.81,2.94,2.94,0,0,0-1.44-.36H133.36l-15-.11c-11.3-.34-20.18,2.09-25.65,7.8A67,67,0,0,0,53.38,41a3,3,0,0,0-1.78.7,2.86,2.86,0,0,0-.61.45l-5.07,5.1a2.93,2.93,0,0,0-.5.71,3,3,0,0,0-.51,1.51,67,67,0,0,0,9.4,39.31c-5.71,5.46-8.14,14.35-7.8,25.65,0,.2.11,15,.11,15v16.67a2.94,2.94,0,0,0,.36,1.44,2.57,2.57,0,0,0,2.81,2.14,73.08,73.08,0,0,0,42.69-16.59H107A360.85,360.85,0,0,0,71,147.25c-11.38,5.19-31.4,15.19-23,31.26,4.57,8.73,16.28,11.49,23.64,6.75A32.47,32.47,0,0,1,67.22,201c-1.69,2.87-5.91,6.34-9.3,3.69-3.81-3,.09-7.68,4-6.67,3.75,1,5.34-4.82,1.59-5.79-11.72-3-18.16,12.83-7.24,18.44a9.33,9.33,0,0,0,6.31.74,17.32,17.32,0,0,1-1.1,14.07c-2.26,4.32-6.21,7.53-8.5,11.89-3.3,6.28-1.3,14,5.53,16.59,3.63,1.35,5.19-4.45,1.6-5.79-8.85-3.29,5.14-16.95,7.31-21.1,3-5.69,2.73-12.32.57-18.17a15.73,15.73,0,0,0,3.59-3.68,37,37,0,0,0,5.2-12.34c1.5-6.22,2.94-13.44,1.25-19.76a14.09,14.09,0,0,0-4.56-7.36C68.8,162,60.57,162.74,58,168.72a11.84,11.84,0,0,0-.86,4.29c-.1,3.87,5.9,3.86,6,0,.14-5.44,6.57-4.88,8.29-.76a4.92,4.92,0,0,1,.32,1.12V175a8.72,8.72,0,0,1-2.44,4.51c-3.89,4-10.55,2.39-14.14-1-4-3.76-3.21-9.73-.58-13.9,2.77-4.4,8.23-6.84,12.71-9a320.46,320.46,0,0,1,36.33-15.08q7.53-2.61,15.18-4.88c5.65-1.68,11.25-3.45,17.19-3.45,0-6.51,2.12-12.7,4-18.86s4-12.53,6.22-18.7A316.86,316.86,0,0,1,159.5,63.45c2.2-4.48,4.64-9.94,9-12.71,4.17-2.63,10.14-3.46,13.9.58,3.35,3.6,5,10.25,1,14.14a8.72,8.72,0,0,1-4.51,2.44h-1.63a4.92,4.92,0,0,1-1.12-.32c-4.12-1.73-4.67-8.15.76-8.29,3.86-.1,3.87-6.1,0-6a11.84,11.84,0,0,0-4.29.86c-6,2.53-6.69,10.75-2.92,15.43a14.09,14.09,0,0,0,7.36,4.56c6.32,1.7,13.54.26,19.76-1.25a37,37,0,0,0,12.34-5.2,15.73,15.73,0,0,0,3.68-3.59c5.86,2.16,12.48,2.4,18.17-.57,4.15-2.17,17.81-16.16,21.1-7.31,1.34,3.59,7.14,2,5.79-1.6C255.35,47.79,247.59,45.79,241.31,49.09ZM137,48.73h10.36A66.75,66.75,0,0,1,137,78.52ZM50.84,50.84l3.87-3.89a61.49,61.49,0,0,1,34.51,8.4A24.67,24.67,0,0,0,87,62.49a23.66,23.66,0,0,0,3.57,16.29,3.21,3.21,0,0,0-2,1.37l-4.76,4.68,0,.05a3.17,3.17,0,0,0-1.11,1.79,23.66,23.66,0,0,0-16.29-3.57,24.68,24.68,0,0,0-7.14,2.2A61.49,61.49,0,0,1,50.84,50.84ZM92.24,85c6.95,1.94,10.82,7.91,11.58,14.93-7-.76-13-4.65-14.94-11.62Zm-39.61,58.5V133.13H82.42A66.75,66.75,0,0,1,52.63,143.49Zm37.56-16.36H52.63c0-2.31-.48-14.71-.16-18.54a25.31,25.31,0,0,1,3.24-10.76c4.23-7.17,13.19-11.27,21.13-7.77l.13.06a11.77,11.77,0,0,1,5.52,16.66,8.33,8.33,0,0,1-10.8,3.57c-4.5-2.15-2.36-9.43,2.77-7.33,3.58,1.46,5.13-4.34,1.59-5.79-10.81-4.41-17.45,11.11-8.48,17.52,10.67,7.63,22.07-3,22.59-14a25,25,0,0,0,10.5,4.89,23.93,23.93,0,0,0,3,.42c-1.23,7.12-6,13.47-10.84,18.53C92,125.47,91.08,126.31,90.18,127.13Zm39.86-.94H118v-12h12Zm1-18H112v18.94H98.68c1-1.17,2.07-2.37,3-3.62,3.89-5.1,7-11.24,8-17.66,6.43-1,12.56-4.14,17.66-8,1.26-1,2.45-2,3.63-3Zm0-21.9c-.82.9-1.66,1.78-2.54,2.63-5.05,4.87-11.41,9.62-18.53,10.84a24,24,0,0,0-.42-3,25,25,0,0,0-4.89-10.5c11-.52,21.63-11.91,14-22.59-6.41-9-21.93-2.33-17.52,8.48,1.44,3.53,7.25,2,5.79-1.59-2.09-5.13,5.19-7.27,7.33-2.77a8.33,8.33,0,0,1-3.57,10.81A11.77,11.77,0,0,1,94,73.08L94,72.94c-3.5-7.94.6-16.91,7.77-21.13a25.31,25.31,0,0,1,10.76-3.24c3.83-.32,16.23.12,18.54.16Z"/><rect class="cls-7" x="49.12" y="265.01" width="21.12" height="21.12" transform="translate(-177.38 122.91) rotate(-45)"/><circle class="cls-14" cx="50.75" cy="309" r="6"/><rect class="cls-7" x="275.01" y="45.22" width="21.12" height="21.12" transform="translate(44.2 218.27) rotate(-45)"/><circle class="cls-14" cx="319" cy="46.85" r="6"/><circle class="cls-14" cx="103.5" cy="168.5" r="12.5"/><circle class="cls-14" cx="173.5" cy="98.5" r="12.5"/><path class="cls-7" d="M53,789.49c2.29,4.36,6.24,7.57,8.5,11.89a17.32,17.32,0,0,1,1.1,14.07,9.33,9.33,0,0,0-6.31.74c-10.92,5.61-4.47,21.46,7.24,18.44,3.74-1,2.15-6.75-1.6-5.79-3.92,1-7.81-3.71-4-6.67,3.39-2.64,7.61.82,9.3,3.69a32.47,32.47,0,0,1,4.45,15.77c-7.36-4.74-19.08-2-23.64,6.75-8.41,16.08,11.61,26.07,23,31.26A360.83,360.83,0,0,0,107,893.77H92.49A73.08,73.08,0,0,0,49.8,877.19,2.57,2.57,0,0,0,47,879.33a2.94,2.94,0,0,0-.36,1.44v16.67s-.1,14.82-.11,15c-.34,11.3,2.09,20.18,7.8,25.65a67,67,0,0,0-9.4,39.31,3,3,0,0,0,.7,1.78,2.86,2.86,0,0,0,.45.61l5.1,5.07a2.93,2.93,0,0,0,.71.5,3,3,0,0,0,1.51.51,67,67,0,0,0,39.31-9.4c5.46,5.71,14.35,8.14,25.65,7.8l15-.11H150a2.94,2.94,0,0,0,1.44-.36,2.57,2.57,0,0,0,2.14-2.81A73.08,73.08,0,0,0,137,938.31V923.84a360.85,360.85,0,0,0,14.12,35.94c5.19,11.38,15.19,31.4,31.26,23,8.73-4.57,11.49-16.28,6.75-23.64a32.47,32.47,0,0,1,15.77,4.45c2.87,1.69,6.34,5.91,3.69,9.3-3,3.81-7.68-.09-6.67-4,1-3.75-4.82-5.34-5.79-1.59-3,11.72,12.83,18.16,18.44,7.24a9.33,9.33,0,0,0,.74-6.31,17.32,17.32,0,0,1,14.07,1.1c4.32,2.26,7.53,6.21,11.89,8.5,6.28,3.3,14,1.3,16.59-5.53,1.35-3.63-4.45-5.19-5.79-1.6-3.29,8.85-16.95-5.14-21.1-7.31-5.69-3-12.32-2.73-18.17-.57a15.73,15.73,0,0,0-3.68-3.59,37,37,0,0,0-12.34-5.2c-6.22-1.5-13.44-2.94-19.76-1.25a14.09,14.09,0,0,0-7.36,4.56c-3.77,4.68-3.06,12.9,2.92,15.43a11.84,11.84,0,0,0,4.29.86c3.87.1,3.86-5.9,0-6-5.44-.14-4.88-6.57-.76-8.29a4.92,4.92,0,0,1,1.12-.32h1.63a8.72,8.72,0,0,1,4.51,2.44c4,3.89,2.39,10.55-1,14.14-3.76,4-9.73,3.21-13.9.58-4.4-2.77-6.84-8.23-9-12.71a320.46,320.46,0,0,1-15.08-36.33q-2.61-7.53-4.88-15.18c-1.68-5.65-3.45-11.25-3.45-17.19-6.51,0-12.7-2.12-18.86-4s-12.53-4-18.7-6.22a316.86,316.86,0,0,1-31.19-13.25c-4.48-2.2-9.94-4.64-12.71-9-2.63-4.17-3.46-10.14.58-13.9,3.6-3.35,10.25-5,14.14-1a8.72,8.72,0,0,1,2.44,4.51v1.63a4.92,4.92,0,0,1-.32,1.12c-1.73,4.12-8.15,4.67-8.29-.76-.1-3.86-6.1-3.87-6,0a11.84,11.84,0,0,0,.86,4.29c2.53,6,10.75,6.69,15.43,2.92A14.09,14.09,0,0,0,78,853.74c1.7-6.32.26-13.54-1.25-19.76a37,37,0,0,0-5.2-12.34A15.73,15.73,0,0,0,68,818c2.16-5.86,2.4-12.48-.57-18.17-2.17-4.15-16.16-17.81-7.31-21.1,3.59-1.34,2-7.14-1.6-5.79C51.69,775.45,49.69,783.21,53,789.49Zm-.37,104.28V883.41a66.75,66.75,0,0,1,29.79,10.36ZM54.73,980l-3.89-3.87a61.49,61.49,0,0,1,8.4-34.51,24.67,24.67,0,0,0,7.14,2.21,23.66,23.66,0,0,0,16.29-3.57,3.21,3.21,0,0,0,1.37,2L88.73,947l.05,0a3.17,3.17,0,0,0,1.79,1.11A23.66,23.66,0,0,0,87,964.41a24.68,24.68,0,0,0,2.2,7.14A61.49,61.49,0,0,1,54.73,980Zm34.15-41.39c1.94-6.95,7.91-10.82,14.93-11.58-.76,7-4.65,13-11.62,14.94Zm58.5,39.61H137V948.38A66.75,66.75,0,0,1,147.39,978.17ZM131,940.61v37.56c-2.31,0-14.71.48-18.54.16a25.31,25.31,0,0,1-10.76-3.24C94.55,970.86,90.45,961.9,94,954l.06-.13a11.77,11.77,0,0,1,16.66-5.52,8.33,8.33,0,0,1,3.57,10.8c-2.15,4.5-9.43,2.36-7.33-2.77,1.46-3.58-4.34-5.13-5.79-1.59-4.41,10.81,11.11,17.45,17.52,8.48,7.63-10.67-3-22.07-14-22.59a25,25,0,0,0,4.89-10.5,23.93,23.93,0,0,0,.42-3c7.12,1.23,13.47,6,18.53,10.84C129.36,938.83,130.2,939.72,131,940.61Zm-.94-39.86v12h-12v-12Zm-18-1v19H131v13.36c-1.17-1-2.37-2.07-3.62-3-5.1-3.89-11.24-7-17.66-8-1-6.43-4.14-12.56-8-17.66-1-1.26-2-2.45-3-3.63Zm-21.9,0c.9.82,1.78,1.66,2.63,2.54,4.87,5.05,9.62,11.41,10.84,18.53a24,24,0,0,0-3,.42,25,25,0,0,0-10.5,4.89c-.52-11-11.91-21.63-22.59-14-9,6.41-2.33,21.93,8.49,17.52,3.53-1.44,2-7.25-1.59-5.79-5.13,2.09-7.27-5.19-2.77-7.33a8.33,8.33,0,0,1,10.81,3.57A11.77,11.77,0,0,1,77,936.78l-.13.06c-7.94,3.5-16.91-.6-21.13-7.77a25.31,25.31,0,0,1-3.24-10.76c-.32-3.83.12-16.23.16-18.54Z"/><rect class="cls-7" x="268.91" y="960.56" width="21.12" height="21.12" transform="translate(-604.83 482.05) rotate(-45)"/><circle class="cls-14" cx="312.9" cy="980.05" r="6"/><rect class="cls-7" x="49.12" y="734.67" width="21.12" height="21.12" transform="translate(-509.48 260.47) rotate(-45)"/><circle class="cls-14" cx="50.75" cy="711.8" r="6"/><circle class="cls-14" cx="172.4" cy="927.3" r="12.5"/><circle class="cls-14" cx="102.4" cy="857.3" r="12.5"/><polygon class="cls-15" points="48.01 525.24 93.21 525.24 93.21 480.04 48.01 525.24"/><polygon class="cls-15" points="48.01 498.74 79.97 530.7 111.93 498.74 48.01 498.74"/><polygon class="cls-15" points="66.59 543.96 98.55 512 66.59 480.04 66.59 543.96"/><polygon class="cls-15" points="93.21 480.04 61.25 512 93.21 543.96 93.21 480.04"/><polygon class="cls-15" points="111.79 525.24 66.59 525.24 66.59 480.04 111.79 525.24"/><polygon class="cls-15" points="1171.01 525.24 1216.21 525.24 1216.21 480.04 1171.01 525.24"/><polygon class="cls-15" points="1171.01 498.74 1202.97 530.7 1234.93 498.74 1171.01 498.74"/><polygon class="cls-15" points="1189.59 543.96 1221.55 512 1189.59 480.04 1189.59 543.96"/><polygon class="cls-15" points="1216.21 480.04 1184.25 512 1216.21 543.96 1216.21 480.04"/><polygon class="cls-15" points="1234.79 525.24 1189.59 525.24 1189.59 480.04 1234.79 525.24"/><path class="cls-7" d="M1227.7,237.41c-2.29-4.36-6.24-7.57-8.5-11.89a17.32,17.32,0,0,1-1.1-14.07,9.33,9.33,0,0,0,6.31-.74c10.92-5.61,4.47-21.46-7.24-18.44-3.74,1-2.15,6.75,1.6,5.79,3.92-1,7.81,3.71,4,6.67-3.39,2.64-7.61-.82-9.3-3.69a32.47,32.47,0,0,1-4.45-15.77c7.36,4.74,19.08,2,23.64-6.75,8.41-16.08-11.61-26.07-23-31.26a360.83,360.83,0,0,0-35.94-14.12h14.47a73.08,73.08,0,0,0,42.69,16.58,2.57,2.57,0,0,0,2.81-2.14,2.94,2.94,0,0,0,.36-1.44V129.46s.1-14.82.11-15c.34-11.3-2.09-20.18-7.8-25.65a67,67,0,0,0,9.4-39.31,3,3,0,0,0-.7-1.78,2.86,2.86,0,0,0-.45-.61l-5.1-5.07a2.93,2.93,0,0,0-.71-.5,3,3,0,0,0-1.51-.51,67,67,0,0,0-39.31,9.4c-5.46-5.71-14.35-8.14-25.65-7.8l-15,.11h-16.67a2.94,2.94,0,0,0-1.44.36,2.57,2.57,0,0,0-2.14,2.81,73.08,73.08,0,0,0,16.59,42.69v14.47a360.85,360.85,0,0,0-14.12-35.94c-5.19-11.38-15.19-31.4-31.26-23-8.73,4.57-11.49,16.28-6.75,23.64a32.47,32.47,0,0,1-15.77-4.45c-2.87-1.69-6.34-5.91-3.69-9.3,3-3.81,7.68.09,6.67,4-1,3.75,4.82,5.34,5.79,1.59,3-11.72-12.83-18.16-18.44-7.24a9.33,9.33,0,0,0-.74,6.31,17.32,17.32,0,0,1-14.07-1.1c-4.32-2.26-7.53-6.21-11.89-8.5-6.28-3.3-14-1.3-16.59,5.53-1.35,3.63,4.45,5.19,5.79,1.6,3.29-8.85,16.95,5.14,21.1,7.31,5.69,3,12.32,2.73,18.17.57a15.73,15.73,0,0,0,3.68,3.59,37,37,0,0,0,12.34,5.2c6.22,1.5,13.44,2.94,19.76,1.25a14.09,14.09,0,0,0,7.36-4.56c3.77-4.68,3.06-12.9-2.92-15.43a11.84,11.84,0,0,0-4.29-.86c-3.87-.1-3.86,5.9,0,6,5.44.14,4.88,6.57.76,8.29a4.92,4.92,0,0,1-1.12.32h-1.63a8.72,8.72,0,0,1-4.51-2.44c-4-3.89-2.39-10.55,1-14.14,3.76-4,9.73-3.21,13.9-.58,4.4,2.77,6.84,8.23,9,12.71a320.46,320.46,0,0,1,15.08,36.33q2.61,7.53,4.88,15.18c1.68,5.65,3.45,11.25,3.45,17.19,6.51,0,12.7,2.12,18.86,4s12.53,4,18.7,6.22a316.86,316.86,0,0,1,31.19,13.25c4.48,2.2,9.94,4.64,12.71,9,2.63,4.17,3.46,10.14-.58,13.9-3.6,3.35-10.25,5-14.14,1a8.72,8.72,0,0,1-2.44-4.51v-1.63a4.92,4.92,0,0,1,.32-1.12c1.73-4.12,8.15-4.67,8.29.76.1,3.86,6.1,3.87,6,0a11.84,11.84,0,0,0-.86-4.29c-2.53-6-10.75-6.69-15.43-2.92a14.09,14.09,0,0,0-4.56,7.36c-1.7,6.32-.26,13.54,1.25,19.76a37,37,0,0,0,5.2,12.34,15.73,15.73,0,0,0,3.59,3.68c-2.16,5.86-2.4,12.48.57,18.17,2.17,4.15,16.16,17.81,7.31,21.1-3.59,1.34-2,7.14,1.6,5.79C1229,251.46,1231,243.69,1227.7,237.41Zm.37-104.28v10.36a66.75,66.75,0,0,1-29.79-10.36ZM1226,46.95l3.89,3.87a61.49,61.49,0,0,1-8.4,34.51,24.67,24.67,0,0,0-7.14-2.2A23.66,23.66,0,0,0,1198,86.68a3.21,3.21,0,0,0-1.37-2L1192,79.94l-.05,0a3.17,3.17,0,0,0-1.79-1.11,23.66,23.66,0,0,0,3.57-16.29,24.68,24.68,0,0,0-2.2-7.14A61.49,61.49,0,0,1,1226,46.95Zm-34.15,41.39c-1.94,6.95-7.91,10.82-14.93,11.58.76-7,4.65-13,11.62-14.94Zm-58.5-39.61h10.36V78.52A66.75,66.75,0,0,1,1133.3,48.73Zm16.36,37.56V48.73c2.31,0,14.71-.48,18.54-.16A25.31,25.31,0,0,1,1179,51.81c7.17,4.23,11.27,13.19,7.77,21.13l-.06.13A11.77,11.77,0,0,1,1170,78.6a8.33,8.33,0,0,1-3.57-10.8c2.15-4.5,9.43-2.36,7.33,2.77-1.46,3.58,4.34,5.13,5.79,1.59,4.41-10.81-11.11-17.45-17.52-8.48-7.63,10.67,3,22.07,14,22.59a25,25,0,0,0-4.89,10.5,23.93,23.93,0,0,0-.42,3c-7.12-1.23-13.47-6-18.53-10.84C1151.33,88.07,1150.49,87.19,1149.67,86.29Zm.94,39.86v-12h12v12Zm18,1v-19h-18.94V94.79c1.17,1,2.37,2.07,3.63,3,5.1,3.89,11.24,7,17.66,8,1,6.43,4.14,12.56,8,17.66,1,1.26,2,2.45,3,3.63Zm21.9,0c-.9-.82-1.78-1.66-2.63-2.54-4.87-5.05-9.62-11.41-10.84-18.53a24,24,0,0,0,3-.42,25,25,0,0,0,10.5-4.89c.52,11,11.91,21.63,22.59,14,9-6.41,2.33-21.93-8.48-17.52-3.53,1.44-2,7.25,1.6,5.79,5.13-2.09,7.27,5.19,2.77,7.33a8.33,8.33,0,0,1-10.8-3.57,11.77,11.77,0,0,1,5.52-16.66l.13-.06c7.94-3.5,16.91.6,21.13,7.77a25.31,25.31,0,0,1,3.24,10.76c.32,3.83-.12,16.23-.16,18.54Z"/><rect class="cls-7" x="990.67" y="45.22" width="21.12" height="21.12" transform="translate(253.81 724.31) rotate(-45)"/><circle class="cls-14" cx="967.8" cy="46.85" r="6"/><rect class="cls-7" x="1210.46" y="271.11" width="21.12" height="21.12" transform="translate(158.46 945.89) rotate(-45)"/><circle class="cls-14" cx="1229.95" cy="315.1" r="6"/><circle class="cls-14" cx="1108.3" cy="99.6" r="12.5"/><circle class="cls-14" cx="1178.3" cy="169.6" r="12.5"/><path class="cls-7" d="M1039.39,977.81c4.36-2.29,7.57-6.24,11.89-8.5a17.32,17.32,0,0,1,14.07-1.1,9.33,9.33,0,0,0,.74,6.31c5.61,10.92,21.46,4.47,18.44-7.24-1-3.74-6.75-2.15-5.79,1.6,1,3.92-3.71,7.81-6.67,4-2.64-3.39.82-7.61,3.69-9.3a32.47,32.47,0,0,1,15.77-4.45c-4.74,7.36-2,19.08,6.75,23.64,16.08,8.41,26.07-11.61,31.26-23a360.83,360.83,0,0,0,14.12-35.94v14.47A73.08,73.08,0,0,0,1127.08,981a2.57,2.57,0,0,0,2.14,2.81,2.94,2.94,0,0,0,1.44.36h16.67l15,.11c11.3.34,20.18-2.09,25.65-7.8a67,67,0,0,0,39.31,9.4,3,3,0,0,0,1.78-.7,2.86,2.86,0,0,0,.61-.45l5.07-5.1a2.93,2.93,0,0,0,.5-.71,3,3,0,0,0,.51-1.51,67,67,0,0,0-9.4-39.31c5.71-5.46,8.14-14.35,7.8-25.65,0-.2-.11-15-.11-15V880.77a2.94,2.94,0,0,0-.36-1.44,2.57,2.57,0,0,0-2.81-2.14,73.08,73.08,0,0,0-42.69,16.59h-14.47a360.85,360.85,0,0,0,35.94-14.12c11.38-5.19,31.4-15.19,23-31.26-4.57-8.73-16.28-11.49-23.64-6.75a32.47,32.47,0,0,1,4.45-15.77c1.69-2.87,5.91-6.34,9.3-3.69,3.81,3-.09,7.68-4,6.67-3.75-1-5.34,4.82-1.6,5.79,11.72,3,18.16-12.83,7.24-18.44a9.33,9.33,0,0,0-6.31-.74,17.32,17.32,0,0,1,1.1-14.07c2.26-4.32,6.21-7.53,8.5-11.89,3.31-6.28,1.3-14-5.53-16.59-3.63-1.35-5.19,4.45-1.6,5.79,8.85,3.29-5.14,16.95-7.31,21.1-3,5.69-2.73,12.32-.57,18.17a15.73,15.73,0,0,0-3.59,3.68,37,37,0,0,0-5.2,12.34c-1.5,6.22-2.94,13.44-1.25,19.76a14.09,14.09,0,0,0,4.56,7.36c4.68,3.77,12.9,3.06,15.43-2.92a11.84,11.84,0,0,0,.86-4.29c.1-3.87-5.9-3.86-6,0-.14,5.44-6.57,4.88-8.29.76a4.92,4.92,0,0,1-.32-1.12v-1.63a8.72,8.72,0,0,1,2.44-4.51c3.89-4,10.55-2.39,14.14,1,4,3.76,3.21,9.73.58,13.9-2.77,4.4-8.23,6.84-12.71,9A320.46,320.46,0,0,1,1177,886.38q-7.53,2.61-15.18,4.88c-5.65,1.68-11.25,3.45-17.19,3.45,0,6.51-2.12,12.7-4,18.86s-4,12.53-6.22,18.7a316.86,316.86,0,0,1-13.25,31.19c-2.2,4.48-4.64,9.94-9,12.71-4.17,2.63-10.14,3.46-13.9-.58-3.35-3.6-5-10.25-1-14.14a8.72,8.72,0,0,1,4.51-2.44h1.63a4.92,4.92,0,0,1,1.12.32c4.12,1.73,4.67,8.15-.76,8.29-3.86.1-3.87,6.1,0,6a11.84,11.84,0,0,0,4.29-.86c6-2.53,6.69-10.75,2.92-15.43a14.09,14.09,0,0,0-7.36-4.56c-6.32-1.7-13.54-.26-19.76,1.25a37,37,0,0,0-12.34,5.2,15.73,15.73,0,0,0-3.68,3.59c-5.86-2.16-12.48-2.4-18.17.57-4.15,2.17-17.81,16.16-21.1,7.31-1.34-3.59-7.14-2-5.79,1.6C1025.34,979.11,1033.1,981.11,1039.39,977.81Zm104.28.37H1133.3a66.75,66.75,0,0,1,10.36-29.79Zm86.18-2.11L1226,980a61.49,61.49,0,0,1-34.51-8.4,24.67,24.67,0,0,0,2.2-7.14,23.66,23.66,0,0,0-3.57-16.29,3.21,3.21,0,0,0,2-1.37l4.76-4.68,0-.05a3.17,3.17,0,0,0,1.11-1.79,23.66,23.66,0,0,0,16.29,3.57,24.68,24.68,0,0,0,7.14-2.2A61.49,61.49,0,0,1,1229.85,976.06Zm-41.39-34.15c-6.95-1.94-10.82-7.91-11.58-14.93,7,.76,13,4.65,14.94,11.62Zm39.61-58.5v10.36h-29.79A66.75,66.75,0,0,1,1228.07,883.41Zm-37.56,16.36h37.56c0,2.31.48,14.71.16,18.54a25.31,25.31,0,0,1-3.24,10.76c-4.23,7.17-13.19,11.27-21.13,7.77l-.13-.06a11.77,11.77,0,0,1-5.52-16.66,8.33,8.33,0,0,1,10.8-3.57c4.5,2.15,2.36,9.43-2.77,7.33-3.58-1.46-5.13,4.34-1.6,5.79,10.81,4.41,17.45-11.11,8.48-17.52-10.67-7.63-22.07,3-22.59,14a25,25,0,0,0-10.5-4.89,23.93,23.93,0,0,0-3-.42c1.23-7.12,6-13.47,10.85-18.53C1188.73,901.43,1189.61,900.59,1190.51,899.77Zm-39.86.94h12v12h-12Zm-1,18h19V899.77H1182c-1,1.17-2.07,2.37-3,3.63-3.89,5.1-7,11.24-8,17.66-6.43,1-12.56,4.14-17.66,8-1.26,1-2.45,2-3.63,3Zm0,21.9c.82-.9,1.66-1.78,2.54-2.63,5.05-4.87,11.41-9.62,18.53-10.84a24,24,0,0,0,.42,3,25,25,0,0,0,4.89,10.5c-11,.52-21.63,11.91-14,22.59,6.41,9,21.93,2.33,17.52-8.49-1.44-3.53-7.25-2-5.79,1.59,2.09,5.13-5.19,7.27-7.33,2.77A8.33,8.33,0,0,1,1170,948.3a11.77,11.77,0,0,1,16.66,5.52l.06.13c3.5,7.94-.6,16.91-7.77,21.13a25.31,25.31,0,0,1-10.76,3.24c-3.83.32-16.23-.12-18.54-.16Z"/><rect class="cls-7" x="1210.46" y="740.77" width="21.12" height="21.12" transform="translate(-173.64 1083.45) rotate(-45)"/><circle class="cls-14" cx="1229.95" cy="717.9" r="6"/><rect class="cls-7" x="984.57" y="960.56" width="21.12" height="21.12" transform="translate(-395.22 988.09) rotate(-45)"/><circle class="cls-14" cx="961.69" cy="980.05" r="6"/><circle class="cls-14" cx="1177.19" cy="858.4" r="12.5"/><circle class="cls-14" cx="1107.19" cy="928.4" r="12.5"/></svg>