<?xml version="1.0" encoding="utf-8"?>
<!-- Generator: Adobe Illustrator 21.1.0, SVG Export Plug-In . SVG Version: 6.00 Build 0)  -->
<svg version="1.1" id="Layer_1" xmlns="http://www.w3.org/2000/svg" xmlns:xlink="http://www.w3.org/1999/xlink" x="0px" y="0px"
	 viewBox="0 0 1000 1000" style="enable-background:new 0 0 1000 1000;" xml:space="preserve">
<title>occult-icons</title>
<path d="M748,423.5C698.3,351.7,640.6,285.5,579.6,223c-27-27.7-54.6-55-83.6-80.5c-29,25.5-56.6,52.9-83.6,80.5
	c-61,62.5-118.7,128.7-168.5,200.5C191.5,499.3,130.8,595.4,141,691.2c2.9,26.2,10.3,51.7,22,75.3c39.4,79.5,139,146.4,228.4,151.7
	c14.8,0.8,59.8,9.5,104.6,9.7c43.7,0.2,87.1-7.9,101.6-8.7c89.4-5.3,192-73.1,231.4-152.7c11.7-23.6,19.1-49.1,22-75.3
	C861.3,595.4,800.5,499.3,748,423.5z M496,801c-122.1,0-221-98.9-221-221s98.9-221,221-221s221,98.9,221,221S618.1,801,496,801z"/>
</svg>
