<svg id="Layer_1" data-name="Layer 1" xmlns="http://www.w3.org/2000/svg" viewBox="0 0 1000 1000"><defs><style>.cls-1,.cls-2,.cls-3,.cls-6{fill:none;}.cls-1,.cls-2,.cls-3,.cls-4,.cls-6,.cls-7{stroke:#caa165;}.cls-1,.cls-2,.cls-3,.cls-6,.cls-7{stroke-linecap:round;}.cls-1,.cls-6,.cls-7{stroke-linejoin:round;}.cls-1{stroke-width:5px;}.cls-2,.cls-3,.cls-4{stroke-miterlimit:10;}.cls-2{stroke-width:4.79px;}.cls-3{stroke-width:3.34px;}.cls-4,.cls-7{fill:#333;}.cls-4{stroke-width:5.03px;}.cls-5{fill:#caa165;}.cls-6{stroke-width:3px;}.cls-7{stroke-width:5.03px;}</style></defs><title>occult-icons</title><circle class="cls-1" cx="500" cy="500" r="356.25"/><line class="cls-2" x1="280" y1="236" x2="280" y2="344.97"/><line class="cls-2" x1="251.88" y1="290.48" x2="308.12" y2="290.48"/><line class="cls-2" x1="299.99" y1="270.49" x2="260.01" y2="310.47"/><line class="cls-2" x1="299.99" y1="310.47" x2="260.01" y2="270.49"/><line class="cls-3" x1="732" y1="659" x2="732" y2="735"/><line class="cls-3" x1="712.39" y1="697" x2="751.61" y2="697"/><line class="cls-3" x1="745.94" y1="683.06" x2="718.06" y2="710.94"/><line class="cls-3" x1="745.94" y1="710.94" x2="718.06" y2="683.06"/><circle class="cls-4" cx="500" cy="500" r="165.15"/><g id="layer1"><path id="path3019" class="cls-5" d="M497,338.73,443.23,506.91l11.37,9.17,41-129.44a2.49,2.49,0,0,1,4.73,0l19.85,59.56,16.56-.48-35-107A2.49,2.49,0,0,0,497,338.73Zm15.86,15.49,4.7,15.6a132.71,132.71,0,0,1,102.31,73.84l16.85.71A147.65,147.65,0,0,0,512.9,354.22Zm-26.32.12a147.72,147.72,0,0,0-124.23,94.75h16.26a132.72,132.72,0,0,1,103.26-79Zm173,94.34-178.67,3-4.11,13.76,139.56-1.58a2.49,2.49,0,0,1,1.5,4.49l-55.54,40.92,3.81,14.53,95-70.6A2.49,2.49,0,0,0,659.53,448.68Zm-204.75,3.44L340.38,454a2.49,2.49,0,0,0-1.4,4.51L483.9,561.7l12.8-9.95L385.46,470.94a2.49,2.49,0,0,1,1.43-4.5l63.78-.75Zm89.57,16.73-16.38.48,43.7,131.28a2.49,2.49,0,0,1-3.82,2.8L516.6,566.16,503,575.27l93.23,66.42a2.49,2.49,0,0,0,3.81-2.8Zm100.58,1.55-13.64,9.17a132.68,132.68,0,0,1-39.72,118.09L596,613.92A148.18,148.18,0,0,0,644.93,470.4Zm-289.78,5.12A147.74,147.74,0,0,0,403,612.2l4.82-16a132.18,132.18,0,0,1-40-94.87A134,134,0,0,1,369,484.22ZM541.49,524.6,430.75,606.28a2.49,2.49,0,0,1-3.85-2.75l19.72-62.26-11.85-8.1L400.09,641.51a2.49,2.49,0,0,0,3.85,2.75L545.6,538.95ZM557.81,621a132.91,132.91,0,0,1-114.46.06l-14.11,9.65a147.69,147.69,0,0,0,142.57,0Z"/></g><rect class="cls-1" x="437.28" y="662.92" width="110.71" height="175.16" transform="translate(1243.14 257.87) rotate(90)"/><rect class="cls-1" x="427.45" y="723.98" width="130.36" height="53.05" transform="translate(985.27 1501) rotate(180)"/><polygon class="cls-1" points="646.25 750.5 580.21 695.15 580.21 805.86 646.25 750.5"/><polygon class="cls-1" points="353.75 750.5 405.05 805.86 405.05 695.15 353.75 750.5"/><line class="cls-1" x1="580.11" y1="695.43" x2="557.71" y2="724.27"/><line class="cls-1" x1="580.11" y1="806.15" x2="557.71" y2="777.31"/><line class="cls-1" x1="404.95" y1="695.43" x2="427.35" y2="724.27"/><line class="cls-1" x1="427.35" y1="777.31" x2="404.95" y2="806.15"/><rect class="cls-1" x="437.28" y="161.63" width="110.71" height="175.16" transform="translate(741.84 -243.42) rotate(90)"/><rect class="cls-1" x="427.45" y="222.69" width="130.36" height="53.05" transform="translate(985.27 498.42) rotate(180)"/><polygon class="cls-1" points="646.25 249.21 580.21 193.85 580.21 304.57 646.25 249.21"/><polygon class="cls-1" points="353.75 249.21 405.05 304.57 405.05 193.85 353.75 249.21"/><line class="cls-1" x1="580.11" y1="194.14" x2="557.71" y2="222.97"/><line class="cls-1" x1="580.11" y1="304.85" x2="557.71" y2="276.02"/><line class="cls-1" x1="404.95" y1="194.14" x2="427.35" y2="222.97"/><line class="cls-1" x1="427.35" y1="276.02" x2="404.95" y2="304.85"/><path class="cls-5" d="M675,627.6a80,80,0,0,0-1.49,8.21c-.55,4.16-1.29,9.35,1.14,13.07,6.4,9.79,17.8,17.44,20.22,29.55,2.34,11.68.58,25.12-15.19,34.47,0,0,10.22-14.31,3.21-24.25-5.34-7.57-13-13.2-17.79-21.22a26.37,26.37,0,0,1-3.95-12.78c-.08-4.12,1.45-8.31,3.14-12a49,49,0,0,1,9.91-14.26C674.45,628.11,674.71,627.84,675,627.6Z"/><path class="cls-5" d="M678.51,632.32s1.34,8.63,1.86,10.22a107,107,0,0,0,7.44,15.8c-.56-.9-7.5-8-10.22-12.55C675.37,642.1,676.65,637,678.51,632.32Z"/><path class="cls-5" d="M655.71,658.56s-1.17,8.18,11.1,19.86,17.53,25.12,2.34,38c0,0-35.05-11.68-25.12-36.81,0,0,9.35,19.28,15.19,16.36s-4.09-8.76-6.43-16.36S649.28,666.16,655.71,658.56Z"/><path class="cls-5" d="M325,627.6a80,80,0,0,1,1.49,8.21c.55,4.16,1.29,9.35-1.14,13.07-6.4,9.79-17.8,17.44-20.22,29.55-2.34,11.68-.58,25.12,15.19,34.47,0,0-10.22-14.31-3.21-24.25,5.34-7.57,13-13.2,17.79-21.22a26.37,26.37,0,0,0,3.95-12.78c.08-4.12-1.45-8.31-3.14-12a49,49,0,0,0-9.91-14.26C325.55,628.11,325.29,627.84,325,627.6Z"/><path class="cls-5" d="M321.49,632.32s-1.34,8.63-1.86,10.22a107,107,0,0,1-7.44,15.8c.56-.9,7.5-8,10.22-12.55C324.63,642.1,323.35,637,321.49,632.32Z"/><path class="cls-5" d="M344.29,658.56s1.17,8.18-11.1,19.86-17.53,25.12-2.34,38c0,0,35.05-11.68,25.12-36.81,0,0-9.35,19.28-15.19,16.36s4.09-8.76,6.43-16.36S350.72,666.16,344.29,658.56Z"/><path class="cls-5" d="M663,275.6a80,80,0,0,1,1.49,8.21c.55,4.16,1.29,9.35-1.14,13.07-6.4,9.79-17.8,17.44-20.22,29.55-2.34,11.68-.58,25.12,15.19,34.47,0,0-10.22-14.31-3.21-24.25,5.34-7.57,13-13.2,17.79-21.22a26.37,26.37,0,0,0,3.95-12.78c.08-4.12-1.45-8.31-3.14-12a49,49,0,0,0-9.91-14.26C663.49,276.11,663.23,275.84,663,275.6Z"/><path class="cls-5" d="M659.43,280.32s-1.34,8.63-1.86,10.22a107,107,0,0,1-7.44,15.8c.56-.9,7.5-8,10.22-12.55C662.57,290.1,661.29,285,659.43,280.32Z"/><path class="cls-5" d="M682.24,306.56s1.17,8.18-11.1,19.86-17.53,25.12-2.34,38c0,0,35.05-11.68,25.12-36.81,0,0-9.35,19.28-15.19,16.36s4.09-8.76,6.43-16.36S688.66,314.16,682.24,306.56Z"/><path class="cls-5" d="M337,275.6a80,80,0,0,0-1.49,8.21c-.55,4.16-1.29,9.35,1.14,13.07,6.4,9.79,17.8,17.44,20.22,29.55,2.34,11.68.58,25.12-15.19,34.47,0,0,10.22-14.31,3.21-24.25-5.34-7.57-13-13.2-17.79-21.22a26.37,26.37,0,0,1-3.95-12.78c-.08-4.12,1.45-8.31,3.14-12a49,49,0,0,1,9.91-14.26C336.51,276.11,336.77,275.84,337,275.6Z"/><path class="cls-5" d="M340.57,280.32s1.34,8.63,1.86,10.22a107,107,0,0,0,7.44,15.8c-.56-.9-7.5-8-10.22-12.55C337.43,290.1,338.71,285,340.57,280.32Z"/><path class="cls-5" d="M317.76,306.56s-1.17,8.18,11.1,19.86,17.53,25.12,2.34,38c0,0-35.05-11.68-25.12-36.81,0,0,9.35,19.28,15.19,16.36s-4.09-8.76-6.43-16.36S311.34,314.16,317.76,306.56Z"/><circle class="cls-2" cx="242.5" cy="693.5" r="18"/><circle class="cls-2" cx="730.5" cy="308.5" r="18"/><circle class="cls-2" cx="287.5" cy="741.5" r="7"/><circle class="cls-2" cx="337.5" cy="603.5" r="7"/><circle class="cls-2" cx="665.5" cy="396.5" r="7"/><circle class="cls-2" cx="683.5" cy="742.5" r="7"/><circle class="cls-2" cx="391.5" cy="338.5" r="7"/><polygon class="cls-5" points="500 210.78 507.78 241.58 538.58 249.35 507.78 257.13 500 287.93 492.22 257.13 461.42 249.35 492.22 241.58 500 210.78"/><polygon class="cls-5" points="182.06 481.64 189.43 447.91 158.46 432.63 192.19 440 207.47 409.04 200.1 442.77 231.06 458.05 197.33 450.68 182.06 481.64"/><polygon class="cls-6" points="500 471.44 501.85 498.55 522.32 480.69 504.45 501.15 531.56 503 504.45 504.85 522.32 525.32 501.85 507.45 500 534.56 498.15 507.45 477.69 525.32 495.55 504.85 468.44 503 495.55 501.15 477.69 480.69 498.15 498.55 500 471.44"/><path class="cls-7" d="M258.73,500A165.21,165.21,0,0,0,131.65,339.27a165.15,165.15,0,1,1,0,321.46A165.21,165.21,0,0,0,258.73,500Z"/><path class="cls-5" d="M219,636.54a185.84,185.84,0,0,0,0-273.09c55.87,20.21,95.9,73.79,95.9,136.54S274.83,616.34,219,636.54Z"/><path class="cls-7" d="M741.27,500A165.21,165.21,0,0,1,868.35,339.27a165.15,165.15,0,1,0,0,321.46A165.21,165.21,0,0,1,741.27,500Z"/><path class="cls-5" d="M781,636.54c-55.87-20.21-95.9-73.79-95.9-136.54s40-116.34,95.9-136.54a185.84,185.84,0,0,0,0,273.09Z"/></svg>