<svg id="Layer_1" data-name="Layer 1" xmlns="http://www.w3.org/2000/svg" viewBox="0 0 1000 1000"><defs><style>.cls-1{fill:#caa165;}.cls-2{fill:#333;stroke-width:7.69px;}.cls-2,.cls-3,.cls-4,.cls-5{stroke:#caa165;}.cls-2,.cls-4,.cls-5{stroke-miterlimit:10;}.cls-3,.cls-4,.cls-5{fill:none;}.cls-3{stroke-linecap:round;stroke-linejoin:round;stroke-width:4.14px;}.cls-4{stroke-width:2.05px;}.cls-5{stroke-width:4.09px;}</style></defs><title>occult-icons</title><rect class="cls-1" x="356.08" y="228.62" width="356.8" height="561.96" rx="11.89" ry="11.89" transform="matrix(0.99, 0.14, -0.14, 0.99, 78.19, -71.05)"/><rect class="cls-2" x="267.14" y="344.83" width="534.69" height="329.53" rx="13.63" ry="13.63" transform="translate(1115.13 53.3) rotate(98.2)"/><rect class="cls-2" x="383.35" y="255.89" width="302.26" height="507.42" transform="translate(990.78 1090.24) rotate(-171.8)"/><rect class="cls-1" x="182.08" y="203.62" width="356.8" height="561.96" rx="11.89" ry="11.89" transform="matrix(0.98, -0.18, 0.18, 0.98, -82.22, 73.75)"/><rect class="cls-2" x="93.14" y="319.83" width="534.69" height="329.53" rx="13.63" ry="13.63" transform="translate(771.33 41.89) rotate(79.51)"/><rect class="cls-2" x="209.35" y="230.89" width="302.26" height="507.42" transform="translate(803.19 895.44) rotate(169.51)"/><path class="cls-1" d="M434.46,481.46l-18.12,17.37c2.4,3.88,2.81,12.36,2.27,22L384.73,539.9a51.22,51.22,0,0,0-7.4-.45l-9.57-49.77L403,506.4c-29.75-52.68-66.7-149.12-66.7-149.12l-.72.23s4,103.2-2.6,163.34l26.26-29.78,9.64,50.13a50.23,50.23,0,0,0-6.11,2.93l-43.47-5.79c-3.7-8.19-6.12-15.58-5.38-19.82l-23.27-9.41L232.46,402S265,548.43,281.66,569.21l10.53-10.86s26.29,12,50,20.67c0,0-9.64-14.66-17.71-30l28.31,3.77c-11.86,17.5,9.63,40.65,9.63,40.65l12-23.1L404.74,728a4.33,4.33,0,0,0,8.51-1.64L382.8,567.91l20.5,17.71s11.39-29.49-6.15-41.33l20.44-11.5c-1.86,16.64-5.15,32.73-5.15,32.73,18.84-16.88,38.81-37.75,38.81-37.75L465.06,534c7.73-25.47-16.33-173.57-16.33-173.57Z"/><path class="cls-1" d="M556.66,706.27l-17.11-92.35a20.56,20.56,0,0,0,0,3.09c-6.09-7.1-3.45-17.94-3.45-17.94-8.8,12.62-3.43,25.17,2.9,38.13s.58,44.48-5.32,12.24-22.91-31.62-22.91-31.62c20.8,17.56-3.2,47.86,1.64,30s-10.75-20.6-10.75-20.6,6.61,12.9-6,14.74-19.87-20.39-19.87-20.39c-4.5,8.84-2,17.22,5.6,27.57s-10.74,28.64-16.6-.35S436,620.68,436,620.68c12.86,7,18.68,34.21,6.35,33S432,631.79,432,631.79c-24.09,21-1.85,39.55-11.43,43.46s-11.42-8.73-11.42-8.73c-1-28.16-18.54-28.84-18.54-28.84,7.48,18.94-4.6,20.67-9.76,35.24a28.74,28.74,0,0,0-1.17,8.53,43.45,43.45,0,0,0-16.13-15.54C365.7,671.11,360.59,686,347,675s-12.33-31.88-12.33-31.88c-6.23,4.45-5.23,14.29-5.23,14.29-6.09-7.1-3.45-17.94-3.45-17.94-8.8,12.62-3.43,25.17,2.9,38.13s.58,44.48-5.32,12.24-22.91-31.62-22.91-31.62c20.8,17.56-3.2,47.86,1.64,30s-10.75-20.6-10.75-20.6,6.61,12.9-6,14.74S265.62,662,265.62,662c-4.5,8.84-2,17.22,5.59,27.57s-10.74,28.64-16.6-.35c-2.35-11.61-7.42-18.42-12.66-22.43l17.51,94.54Z"/><path class="cls-1" d="M203.27,297.77l-9.06,1.74-1.27-6.62,26.43-5.08,1.27,6.62-9,1.73,4.4,22.89-8.35,1.6Z"/><path class="cls-1" d="M252.67,281.41l5.67,29.51-8.35,1.6L247.78,301,236.4,303.2l2.21,11.51-8.35,1.6-5.67-29.51,8.35-1.6,2.13,11.09,11.38-2.19L244.32,283Z"/><path class="cls-1" d="M288.8,298.38l1.24,6.45-23.69,4.55-5.67-29.51,23.14-4.45,1.24,6.45-14.88,2.86,1,5,13.11-2.52,1.2,6.24-13.11,2.52,1,5.4Z"/><path class="cls-1" d="M305.48,271.26l14-2.68a19.9,19.9,0,0,1,8.95.16,13.91,13.91,0,0,1,6.81,4,16,16,0,0,1,3,15.6,13.9,13.9,0,0,1-4.83,6.26,19.88,19.88,0,0,1-8.25,3.47l-14,2.68Zm18,20.23a8.71,8.71,0,0,0,5.68-3.32,9,9,0,0,0-2.29-11.89,8.71,8.71,0,0,0-6.5-1l-5.27,1,3.11,16.19Z"/><path class="cls-1" d="M370.53,282.66l1.24,6.45-23.69,4.55-5.67-29.51,23.14-4.45,1.24,6.45L351.91,269l1,5L366,271.48l1.2,6.24-13.11,2.52,1,5.4Z"/><path class="cls-1" d="M402.35,252.64l-7,31.94-8.22,1.58-18.28-27.08,9-1.73L389.61,275l4.48-20.79Z"/><path class="cls-1" d="M406.19,251.9l8.35-1.6,5.67,29.51-8.35,1.6Z"/><path class="cls-1" d="M422.58,248.75l8.35-1.6,4.4,22.89,14.08-2.71,1.27,6.62-22.43,4.31Z"/><rect class="cls-1" x="402.12" y="318.43" width="356.8" height="561.96" rx="11.89" ry="11.89" transform="translate(190.14 -138.08) rotate(16.19)"/><rect class="cls-2" x="313.17" y="434.64" width="534.69" height="329.53" rx="13.63" ry="13.63" transform="translate(1318.01 209.03) rotate(106.19)"/><rect class="cls-2" x="429.39" y="345.7" width="302.26" height="507.42" transform="translate(970.9 1336.89) rotate(-163.81)"/><path class="cls-3" d="M580.88,557.6a1.36,1.36,0,0,1,2.64.3c.91,7.9,1.32,21.51-4.19,32.77-8.31,17-19.58,37.5-19.58,37.5l-11.08-15.33S574.06,577,580.88,557.6Z"/><path class="cls-3" d="M560.67,532.52a3,3,0,0,1,5.49.47c2,7.16,4.38,19.67,1.25,32.66-4.8,20-8.49,52.83-12,49.88s-9.24-31.77-9.24-31.77S553,548.55,560.67,532.52Z"/><path class="cls-3" d="M580,600.64a2.47,2.47,0,0,1,4.36,1.26,35.63,35.63,0,0,1-2.51,17.87c-5.36,13.48-17.18,27.52-17.18,27.52l-7.57-12.38S556.56,629,580,600.64Z"/><path class="cls-1" d="M524.18,517.25S543.8,534,545.94,559l3.21,37.48S561.87,615,564.33,626.6c3.89,18.4,13.39,46,22.49,42.12s6.84-27.38,12.55-34.16,29.21-29.19,35.45-29.73-18.42,38.48-17.35,51S620,725.64,612,742.06s-43,85.48-63,109.22l-64.6-19.63,54.34-67.91a9.79,9.79,0,0,0,1.89-8.41c-4.23-17.64-18.86-80.15-17.33-93.75,1.78-15.88,8.74-44.79,4.28-60.14S524,523.09,524,523.09Z"/><polygon class="cls-1" points="627.91 549.26 634.45 523.02 607.41 522.79 632 511.54 615.32 490.26 639.45 502.47 645.69 476.16 651.18 502.64 675.65 491.11 658.37 511.92 682.64 523.86 655.6 523.32 661.39 549.74 644.95 528.26 627.91 549.26"/><path class="cls-1" d="M525.7,365l-9.63-2.8,2-7,28.09,8.16-2,7-9.59-2.78-7.06,24.33-8.87-2.58Z"/><path class="cls-1" d="M581.6,373.63,572.49,405l-8.87-2.58,3.55-12.23-12.1-3.51-3.55,12.23-8.87-2.58L551.76,365l8.87,2.58-3.42,11.78,12.1,3.51,3.42-11.78Z"/><path class="cls-1" d="M608.18,407.92l-2,6.86L581,407.46l9.11-31.36,24.6,7.14-2,6.86L596.9,385.5l-1.53,5.29,13.93,4-1.93,6.63-13.93-4-1.67,5.74Z"/><path class="cls-1" d="M632.35,422a18.92,18.92,0,0,1-5.1-4.2l4.81-5.7a19.6,19.6,0,0,0,4.23,3.66,19.36,19.36,0,0,0,5.22,2.44q5.11,1.48,5.85-1.07a2.2,2.2,0,0,0-.88-2.42,28,28,0,0,0-4.29-2.73,46.5,46.5,0,0,1-5.44-3.35,10.36,10.36,0,0,1-3.26-4,7.88,7.88,0,0,1-.19-5.69,9.37,9.37,0,0,1,3.07-4.72,10.92,10.92,0,0,1,5.74-2.29,20.06,20.06,0,0,1,8,.87,28.07,28.07,0,0,1,5.89,2.46,19.46,19.46,0,0,1,4.7,3.57l-4.65,5.79a19,19,0,0,0-8-4.94,7.59,7.59,0,0,0-4.08-.33,2.45,2.45,0,0,0-1.8,1.69,2.1,2.1,0,0,0,.89,2.3,26.94,26.94,0,0,0,4.24,2.64,45.05,45.05,0,0,1,5.46,3.36,10.68,10.68,0,0,1,3.27,4,7.73,7.73,0,0,1,.22,5.68,9.19,9.19,0,0,1-3.05,4.65,11.13,11.13,0,0,1-5.76,2.29,19.82,19.82,0,0,1-8-.84A30.2,30.2,0,0,1,632.35,422Z"/><path class="cls-1" d="M673.15,407.83l-9.63-2.8,2-7,28.09,8.16-2,7L682,410.41,675,434.74l-8.87-2.58Z"/><path class="cls-1" d="M711.32,438.69l-13.26-3.85-4.23,5.38-9.05-2.63,23-27.34,8.74,2.54,4.78,35.4L712,445.5Zm-.7-7.3-1.12-11.21-6.95,8.87Z"/><path class="cls-1" d="M742.12,445.2l-4.84-1.4-2.42,8.33L726,449.56l9.11-31.36,14.34,4.16a18.63,18.63,0,0,1,7,3.56,11.88,11.88,0,0,1,.27,17.57,11.2,11.2,0,0,1-5.7,2.64l3.9,11.82-9.5-2.76Zm8.52-13.61a6.37,6.37,0,0,0-3.77-2.41l-4.93-1.43-2.67,9.19,4.93,1.43a6.46,6.46,0,0,0,4.47,0,4.38,4.38,0,0,0,2.37-3A4.45,4.45,0,0,0,750.64,431.59Z"/><polygon class="cls-1" points="678.67 660.28 676.53 682.42 696.37 692.47 674.23 690.33 664.19 710.17 666.33 688.03 646.49 677.99 668.62 680.13 678.67 660.28"/><circle class="cls-4" cx="628.56" cy="784.23" r="8.86" transform="translate(-299.82 1169.21) rotate(-73.81)"/><circle class="cls-5" cx="697.76" cy="562.97" r="6.82" transform="translate(-37.43 1076.1) rotate(-73.81)"/><polygon class="cls-1" points="491.01 580.74 487.45 602.6 508.79 596.7 489.49 607.55 507.4 620.56 486.89 612.24 487.88 634.35 481.61 613.12 464.93 627.69 477.62 609.54 455.83 605.59 477.93 604.19 467.44 584.7 482.31 601.1 491.01 580.74"/><polygon class="cls-1" points="444.74 751.68 432.49 770.24 445.32 788.4 426.76 776.16 408.59 788.99 420.84 770.43 408.01 752.26 426.57 764.51 444.74 751.68"/><circle class="cls-5" cx="518.34" cy="454.8" r="17.72" transform="translate(-62.94 825.79) rotate(-73.81)"/><circle class="cls-5" cx="454.23" cy="668.31" r="10.91" transform="translate(-314.22 918.19) rotate(-73.81)"/><polygon class="cls-1" points="501.98 723.41 500.89 737.88 515.16 735.24 503.17 743.41 514.13 752.91 500.27 748.63 499.67 763.13 494.38 749.62 482.67 758.2 489.93 745.63 475.92 741.82 490.28 739.66 484.52 726.34 495.15 736.22 501.98 723.41"/><polygon class="cls-1" points="587.97 528.4 589.57 519.07 580.8 515.5 590.17 514.13 590.86 504.69 595.06 513.18 604.25 510.92 597.47 517.53 602.46 525.57 594.08 521.17 587.97 528.4"/><circle class="cls-1" cx="497.64" cy="543.2" r="6.14" transform="translate(-162.77 869.66) rotate(-73.81)"/><circle class="cls-1" cx="574.94" cy="467.68" r="6.14" transform="translate(-34.5 889.43) rotate(-73.81)"/><path class="cls-1" d="M367.73,297.8l-2.76.52L277.18,315l-2.3.44-74,14L203,340.9a7.39,7.39,0,0,0,3.88,5.2l0,0c13.59,7,8.23,16.07,8.23,16.07,5.1-3.26,5.74-4.91,1.73-16s9.39-13.25,8.42-5.8,9.09,12.8,9.09,12.8c-2.08-3.43-1.6-13.46,4.41-11.92s7,14.35,7,14.35c5.53-6,4.55-11.18,2.83-17.74s9.45-16,9.64,3.14c.13,13.26,16.7,12.12,16.7,12.12-5.58-4.29-3.13-8.17.61-16.2a36.53,36.53,0,0,0,2.79-8.11c1.59,2.31,4.24,4.13,8.93,5.82,6.48,2.34,5.67,7.91,5.67,7.91,2.31-2.25,4.23-5.3.5-8s-1.28-8.31,4-5.59c13.59,7,8.23,16.07,8.23,16.07,5.1-3.26,5.74-4.91,1.73-16s9.39-13.25,8.42-5.8S325,336,325,336c-2.08-3.43-1.6-13.46,4.41-11.92s7,14.35,7,14.35c5.53-6,4.55-11.18,2.83-17.74s9.45-16,9.64,3.14C349,337.1,365.57,336,365.57,336c-5.58-4.29-3.13-8.17.61-16.2a37.49,37.49,0,0,0,2.67-7.56c1.62,2.09,4.22,3.78,8.59,5.35,6.48,2.34,5.67,7.91,5.67,7.91,2.31-2.25,4.23-5.3.5-8s-1.28-8.31,4-5.59c13.6,7,8.23,16.07,8.23,16.07,5.1-3.26,5.74-4.91,1.73-16s9.39-13.25,8.42-5.8,9.09,12.8,9.09,12.8c-2.08-3.43-1.6-13.46,4.41-11.92s7,14.35,7,14.35c5.53-6,4.55-11.18,2.83-17.74s9.45-16,9.64,3.14c.13,13.26,16.7,12.12,16.7,12.12-5.58-4.29-3.13-8.17.61-16.2l0,0a10.78,10.78,0,0,0,.77-6.55l-2.79-14.7Z"/></svg>