<svg id="Layer_1" data-name="Layer 1" xmlns="http://www.w3.org/2000/svg" viewBox="0 0 1000 1000"><defs><style>.cls-1,.cls-2,.cls-3,.cls-4,.cls-7,.cls-8{fill:none;stroke:#caa165;stroke-miterlimit:10;}.cls-1,.cls-2,.cls-3,.cls-4{stroke-width:5.99px;}.cls-2,.cls-3,.cls-4{stroke-linecap:round;}.cls-3{stroke-dasharray:27.27 9.92 16.12 27.27;}.cls-4{stroke-dasharray:9.92 16.12 27.27 9.92 16.12 27.27;}.cls-5,.cls-6{fill:#caa165;}.cls-6{font-size:41.9px;font-family:Montserrat-Black, Montserrat;}.cls-7{stroke-width:6.38px;}.cls-8{stroke-width:4.39px;}</style></defs><title>occult-icons</title><path class="cls-1" d="M855,336.82a224.12,224.12,0,0,0-22-75.28C793.59,182,710,120.19,620.59,114.89a259.2,259.2,0,0,0-86.68,9.92l-1.62.45a121.88,121.88,0,0,1-64.56,0l-1.62-.45a259.2,259.2,0,0,0-86.68-9.92c-89.39,5.3-173,67.13-212.36,146.66a224.12,224.12,0,0,0-22,75.28C134.74,432.58,195.48,528.73,248,604.48,297.7,676.29,355.45,742.55,416.42,805c27,27.65,54.56,55,83.58,80.54C529,860,556.58,832.65,583.58,805c61-62.45,118.73-128.71,168.47-200.52C804.52,528.73,865.26,432.58,855,336.82Z"/><path class="cls-1" d="M500,853.34c-24.41-22.41-47-45.15-66.45-65.06C366,719.07,311.72,654.49,267.63,590.85c-26.27-37.92-53.27-79-72.85-122.52-21.63-48.07-30.12-90.25-26-129a199,199,0,0,1,19.69-67.21C225.71,197,303,143.4,380.83,138.78c4.29-.25,8.67-.38,13-.38a237.49,237.49,0,0,1,65.63,9.42l1.9.53a145.83,145.83,0,0,0,77.24,0l1.89-.52a237.52,237.52,0,0,1,65.64-9.42c4.35,0,8.73.13,13,.38C697,143.4,774.29,197,811.49,272.16a199,199,0,0,1,19.69,67.21c4.15,38.7-4.34,80.89-26,129-19.57,43.51-46.58,84.59-72.85,122.52C688.28,654.49,634,719.07,566.45,788.28,547,808.19,524.41,830.93,500,853.34Z"/><path class="cls-2" d="M211.16,461q-1-2.2-1.94-4.38"/><path class="cls-3" d="M203.1,441.68c-8.88-23-14.32-44.5-16.39-64.72"/><path class="cls-4" d="M185.82,363.36a164.44,164.44,0,0,1,.85-22.06,181.08,181.08,0,0,1,17.93-61.16C239,210.56,310.29,161,381.89,156.71c3.94-.23,8-.35,12-.35a219.57,219.57,0,0,1,60.66,8.72l2.1.58a163.78,163.78,0,0,0,86.77,0l2.1-.58a219.6,219.6,0,0,1,60.67-8.72c4,0,8,.12,12,.35C689.71,161,761,210.56,795.4,280.13a181.09,181.09,0,0,1,17.93,61.16C816.65,372.22,811,406,796,444"/><path class="cls-2" d="M790.78,456.59q-.95,2.18-1.94,4.38"/><path class="cls-5" d="M500,534.95a76,76,0,1,0,76,76A76,76,0,0,0,500,534.95Zm-20.25,123a1.89,1.89,0,0,1-3.79,0V615.53l-14,14a1.89,1.89,0,0,1-2.68-2.68l14-14H453.61a1.89,1.89,0,1,1,0-3.79h19.68l-14-14a1.89,1.89,0,0,1,2.68-2.68l14,14V564a1.89,1.89,0,0,1,3.79,0v42.41l14-14a1.89,1.89,0,0,1,2.68,2.68l-14,14H502.1a1.89,1.89,0,0,1,0,3.79H482.43l14,14a1.89,1.89,0,0,1-2.68,2.68l-14-14ZM500,668.31a57.39,57.39,0,0,1-11.4-1.14,57.36,57.36,0,0,0,0-112.42A57.36,57.36,0,1,1,500,668.31Z"/><text class="cls-6" transform="matrix(0.8, -0.25, 0.3, 0.95, 242.03, 380.86)">A</text><text class="cls-6" transform="matrix(0.81, -0.22, 0.26, 0.96, 272.27, 371.68)"> </text><text class="cls-6" transform="translate(285.59 367.98) rotate(-13.39) scale(0.84 1)">B</text><text class="cls-6" transform="translate(315.28 361.09) rotate(-11.66) scale(0.84 1)"> </text><text class="cls-6" transform="translate(328.85 358.23) rotate(-10.06) scale(0.84 1)">C</text><text class="cls-6" transform="translate(357.93 353.23) rotate(-8.55) scale(0.84 1)"> </text><text class="cls-6" transform="matrix(0.83, -0.1, 0.12, 0.99, 371.63, 351.09)">D</text><text class="cls-6" transform="translate(403.79 347.31) rotate(-5.5) scale(0.84 1)"> </text><text class="cls-6" transform="translate(417.63 345.94) rotate(-4.22) scale(0.84 1)">E</text><text class="cls-6" transform="matrix(0.84, -0.04, 0.05, 1, 444.59, 344.06)"> </text><text class="cls-6" transform="translate(458.49 343.31) rotate(-1.77) scale(0.84 1)">F</text><text class="cls-6" transform="translate(484.5 342.6) rotate(-0.59) scale(0.84 1)"> </text><text class="cls-6" transform="matrix(0.84, 0.01, -0.01, 1, 498.4, 342.4)">G</text><text class="cls-6" transform="translate(528.79 342.91) rotate(2.02) scale(0.84 1)"> </text><text class="cls-6" transform="translate(542.67 343.33) rotate(3.39) scale(0.84 1)">H</text><text class="cls-6" transform="translate(574.22 345.35) rotate(4.79) scale(0.84 1)"> </text><text class="cls-6" transform="matrix(0.84, 0.08, -0.1, 1, 588.13, 346.53)">I</text><text class="cls-6" transform="translate(603.74 348.13) rotate(6.68) scale(0.84 1)"> </text><text class="cls-6" transform="matrix(0.83, 0.12, -0.14, 0.99, 617.56, 349.74)">J</text><text class="cls-6" transform="matrix(0.83, 0.13, -0.16, 0.99, 640.87, 353.07)"> </text><text class="cls-6" transform="translate(654.58 355.22) rotate(10.78) scale(0.84 1)">K</text><text class="cls-6" transform="translate(684.21 361.04) rotate(12.45) scale(0.84 1)"> </text><text class="cls-6" transform="translate(697.78 364) rotate(14) scale(0.84 1)">L</text><text class="cls-6" transform="translate(722 370.16) rotate(15.66) scale(0.84 1)"> </text><text class="cls-6" transform="translate(735.32 373.71) rotate(18) scale(0.84 1)">M</text><text class="cls-6" transform="matrix(0.79, 0.3, -0.35, 0.94, 770.15, 385.37)"> </text><text class="cls-6" transform="translate(252.37 450.5) rotate(-16.29) scale(0.84 1)">N</text><text class="cls-6" transform="matrix(0.81, -0.21, 0.25, 0.97, 280.52, 442.44)"> </text><text class="cls-6" transform="matrix(0.82, -0.19, 0.22, 0.98, 291.67, 439.43)">O</text><text class="cls-6" transform="matrix(0.82, -0.16, 0.19, 0.98, 321.79, 432.75)"> </text><text class="cls-6" transform="matrix(0.83, -0.14, 0.17, 0.99, 333.15, 430.43)">P</text><text class="cls-6" transform="translate(359.97 425.93) rotate(-8.4) scale(0.84 1)"> </text><text class="cls-6" transform="translate(371.44 424.13) rotate(-6.98) scale(0.84 1)">Q</text><text class="cls-6" transform="translate(402.09 420.5) rotate(-5.61) scale(0.84 1)"> </text><text class="cls-6" transform="translate(413.67 419.29) rotate(-4.39) scale(0.84 1)">R</text><text class="cls-6" transform="translate(440.88 417.3) rotate(-3.2) scale(0.84 1)"> </text><text class="cls-6" transform="translate(452.49 416.6) rotate(-2.12) scale(0.84 1)">S</text><text class="cls-6" transform="matrix(0.84, -0.02, 0.02, 1, 476.7, 415.78)"> </text><text class="cls-6" transform="matrix(0.84, 0.01, -0.01, 1, 488.39, 415.43)">T</text><text class="cls-6" transform="translate(512.43 415.58) rotate(1.05) scale(0.84 1)"> </text><text class="cls-6" transform="matrix(0.84, 0.03, -0.04, 1, 524.08, 415.71)">U</text><text class="cls-6" transform="matrix(0.84, 0.05, -0.06, 1, 552.68, 416.94)"> </text><text class="cls-6" transform="translate(564.3 417.56) rotate(4.7) scale(0.84 1)">V</text><text class="cls-6" transform="translate(592.91 420.02) rotate(5.98) scale(0.84 1)"> </text><text class="cls-6" transform="translate(604.44 420.99) rotate(7.78) scale(0.84 1)">W</text><text class="cls-6" transform="matrix(0.83, 0.14, -0.17, 0.99, 647.39, 427.13)"> </text><text class="cls-6" transform="translate(658.85 428.99) rotate(11.1) scale(0.84 1)">X</text><text class="cls-6" transform="translate(686.14 434.47) rotate(12.6) scale(0.84 1)"> </text><text class="cls-6" transform="translate(697.48 436.92) rotate(14.11) scale(0.84 1)">Y</text><text class="cls-6" transform="translate(722.66 443.36) rotate(15.72) scale(0.84 1)"> </text><text class="cls-6" transform="matrix(0.8, 0.25, -0.3, 0.95, 733.81, 446.41)">Z</text><path class="cls-7" d="M589.1,565.52l137.3-73.88c-17.34-5.44-35.73-10.27-55-14.42l-91.64,73.08,91.64-73.08q-21.43-4.62-44.25-8.09L567.86,537l59.3-67.87q-17.92-2.72-36.58-4.69L553.78,526l36.8-61.59Q575,462.81,559,461.73l-21,56,21-56q-14.14-.95-28.6-1.45l-9.46,52.15,9.46-52.15q-13.47-.46-27.18-.52v0h-3.57q-11.86,0-23.54.32l9.29,51.18-9.29-51.18q-14.34.38-28.39,1.2L468,515.42,447.7,461.27q-15.82.93-31.23,2.4l35.22,59-35.22-59q-18.38,1.75-36.09,4.25l56.53,64.71-56.53-64.71q-22.45,3.16-43.67,7.46l87.44,69.73-87.44-69.73c-19,3.85-37.28,8.35-54.55,13.44l131.67,70.86L282.15,488.83c-15.15,4.47-29.56,9.38-43.14,14.71q5.38,10.93,11.34,21.66l155.91,50.66L250.35,525.19c9.85,17.74,20.73,35,31.85,51.73l119.51,16.19L282.2,576.93c5.48,8.24,11,16.34,16.53,24.29q4.78,6.9,9.74,13.82l91.85-4.13L308.47,615q10.68,14.91,22.21,29.94l71.44-16.31L330.68,645q9.57,12.47,19.76,25.05l56.63-24.21L350.44,670q9,11.07,18.41,22.25L415,661.82l-46.15,30.47q8.8,10.41,18,20.93l38.78-37.08-38.78,37.08Q396,723.56,405.5,734l33.21-45.71L405.5,734q9.9,10.89,20.3,21.93l27.92-58L425.8,756q11.46,12.17,23.52,24.55l20.89-75.71-20.89,75.71.91.93c8.64,8.85,18.15,18.51,28.31,28.53l9.13-101.4L478.54,810c6.8,6.71,13.87,13.57,21.2,20.49q7.88-7.44,15.35-14.76l-9.59-106.54,9.59,106.54c10.71-10.46,20.76-20.58,29.93-29.95l-21.86-79.2L545,785.77l4.23-4.32q10.1-10.34,19.75-20.53l-28.92-60.06L569,760.92q10.54-11.11,20.58-22.07L555.7,692.22l33.88,46.63q9.6-10.47,18.76-20.81l-38.81-37.11L608.34,718q9.26-10.45,18.07-20.79l-45.29-29.9,45.29,29.9q9.42-11,18.35-22L590.1,651.93l54.67,23.37q10.1-12.35,19.61-24.58l-68.2-15.57,68.2,15.57q11.42-14.7,22-29.25l-87.22-3.92,87.22,3.92q7.38-10.14,14.38-20.24,5.77-8.33,11.56-16.88L599,599.69l113.36-15.36c11-16.3,21.9-33.15,31.91-50.47l-148.66,48.3,148.66-48.3c5.74-9.94,11.19-20,16.22-30.25q-16.25-6.39-34.05-12Z"/><circle class="cls-1" cx="497.91" cy="234.95" r="19.15"/><circle class="cls-5" cx="497.91" cy="234.95" r="9.58"/><path class="cls-2" d="M553.27,235c-16,16-38.65,30.58-55.54,30.58a30.58,30.58,0,0,1,0-61.16C514.62,204.37,535.34,217,553.27,235Z"/><path class="cls-2" d="M442.54,235c16-16,38.65-30.58,55.54-30.58a30.58,30.58,0,1,1,0,61.16C481.19,265.53,460.47,252.88,442.54,235Z"/><circle class="cls-1" cx="582.89" cy="235.55" r="8.98"/><circle class="cls-5" cx="562.93" cy="217.64" r="5.99" transform="translate(-32.8 120.86) rotate(-11.91)"/><circle class="cls-8" cx="542.79" cy="202.63" r="6.58"/><circle class="cls-5" cx="562.93" cy="253.51" r="5.99" transform="translate(198.7 752) rotate(-78.09)"/><circle class="cls-8" cx="542.79" cy="268.52" r="6.58"/><circle class="cls-1" cx="417.11" cy="235.55" r="8.98"/><circle class="cls-5" cx="437.07" cy="217.64" r="5.99" transform="translate(133.91 600.38) rotate(-78.09)"/><circle class="cls-8" cx="457.21" cy="202.63" r="6.58"/><circle class="cls-5" cx="437.07" cy="253.51" r="5.99" transform="translate(-42.91 95.66) rotate(-11.91)"/><circle class="cls-8" cx="457.21" cy="268.52" r="6.58"/><path class="cls-5" d="M623.88,235.58a32.53,32.53,0,0,1-26,31.83,32.48,32.48,0,1,0,0-63.66A32.53,32.53,0,0,1,623.88,235.58Z"/><path class="cls-5" d="M376.12,235.58a32.53,32.53,0,0,0,26,31.83,32.48,32.48,0,1,1,0-63.66A32.53,32.53,0,0,0,376.12,235.58Z"/><path class="cls-5" d="M357.21,285.35c-43.9-43.23-14.95-84.6-4.7-96.59a1.38,1.38,0,0,0-1.43-2.22c-50.88,14.52-97.75,53.39-122.9,104.21-3.94,8-10,23.59-12.4,30.06a1.37,1.37,0,0,0,1.79,1.76c40.33-16.07,87.64-28.78,139.66-37.11ZM235.74,303c1.23-2.86,2.3-5.23,3.16-7,18.62-37.62,50.92-69.29,87.89-87.37-7.83,20.69-7.65,44.84,8.08,68.49A682.65,682.65,0,0,0,235.74,303Z"/><path class="cls-5" d="M260.49,282.54a186.07,186.07,0,0,1,49.26-50,81.87,81.87,0,0,0,6.82,36.08C297.17,272.61,278.42,277.28,260.49,282.54Z"/><path class="cls-5" d="M784.23,320.81c-2.45-6.48-8.47-22.11-12.4-30.06-25.15-50.82-72-89.69-122.9-104.21a1.38,1.38,0,0,0-1.43,2.22c10.25,12,39.2,53.36-4.7,96.59l0,.1c52,8.34,99.33,21,139.66,37.11A1.37,1.37,0,0,0,784.23,320.81Zm-119.1-43.64c15.73-23.64,15.91-47.8,8.08-68.49,37,18.08,69.27,49.75,87.89,87.37.86,1.74,1.93,4.1,3.16,7A682.65,682.65,0,0,0,665.13,277.18Z"/><path class="cls-5" d="M739.51,282.54c-17.93-5.26-36.67-9.93-56.09-14a81.87,81.87,0,0,0,6.82-36.08A186.08,186.08,0,0,1,739.51,282.54Z"/></svg>